<svg xmlns:xlink="http://www.w3.org/1999/xlink" width="101" height="22" viewBox="0 0 101 22" fill="none" class="_af87 _9t0j"
    xmlns="http://www.w3.org/2000/svg">
    <g clip-path="url(#clip0_4057_1490)" fill="none">
        <path d="M39.9672 12.7979H39.9378L38.0929 5.5H35.87L33.9867 12.7095H33.9563L32.2524 5.50442H29.8828L32.741 16.0887H35.1456L36.9442 8.8847H36.9747L38.8049 16.0887H41.1644L44.0632 5.50442H41.7342L39.9672 12.7979ZM51.3063 9.08484C51.079 8.80102 50.7793 8.58095 50.4375 8.44682C49.9861 8.28004 49.5057 8.20226 49.0236 8.21793C48.5915 8.22441 48.1667 8.32846 47.7824 8.52201C47.3438 8.73736 46.9802 9.07519 46.7375 9.49286H46.6923V5.50442H44.5484V16.0887H46.6923V12.0715C46.6923 11.2908 46.8232 10.7298 47.085 10.3885C47.3468 10.0472 47.7703 9.87693 48.3556 9.87766C48.869 9.87766 49.2278 10.0336 49.4287 10.3454C49.6295 10.6572 49.7311 11.1283 49.7311 11.7608V16.0887H51.875V11.3748C51.8783 10.9393 51.8352 10.5046 51.7464 10.0778C51.6766 9.71894 51.5263 9.37976 51.3063 9.08484ZM60.1528 14.3825V10.4018C60.1528 9.93664 60.0471 9.56326 59.8358 9.28166C59.6236 8.99813 59.3434 8.77025 59.0199 8.61822C58.6711 8.45612 58.2982 8.34902 57.9153 8.30086C57.5193 8.247 57.1201 8.21967 56.7203 8.21904C56.2857 8.21856 55.8522 8.26042 55.426 8.34399C55.0186 8.41981 54.6272 8.56262 54.2683 8.76639C53.9282 8.96066 53.6386 9.22935 53.422 9.55147C53.1859 9.92121 53.055 10.3461 53.0429 10.7822H55.1868C55.2274 10.3675 55.3696 10.0701 55.6111 9.89757C55.8526 9.72507 56.1911 9.62776 56.6154 9.62776C56.7947 9.62695 56.9738 9.63915 57.1513 9.66425C57.3063 9.68442 57.4555 9.7348 57.5903 9.81242C57.7178 9.88786 57.8223 9.99558 57.8927 10.1242C57.9759 10.2924 58.0147 10.4783 58.0055 10.665C58.0166 10.7571 58.0044 10.8505 57.9702 10.9371C57.936 11.0236 57.8807 11.1006 57.8092 11.1614C57.6386 11.2884 57.4412 11.3765 57.2315 11.4191C56.9581 11.4842 56.6801 11.529 56.3998 11.5529C56.0861 11.5831 55.7687 11.6225 55.4475 11.6712C55.1239 11.7211 54.8033 11.7883 54.4872 11.8724C54.1846 11.949 53.8978 12.0766 53.6398 12.2495C53.3869 12.4249 53.1793 12.6559 53.0339 12.924C52.8663 13.2578 52.786 13.6271 52.8003 13.9988C52.791 14.3503 52.8607 14.6995 53.0045 15.0216C53.1324 15.2994 53.3258 15.5435 53.5687 15.7337C53.8198 15.9259 54.1075 16.0669 54.415 16.1484C54.7549 16.2401 55.1062 16.2851 55.4588 16.2822C55.9401 16.2822 56.4188 16.2125 56.8794 16.0754C57.3398 15.9383 57.7567 15.6878 58.0902 15.3478C58.0997 15.4748 58.1174 15.6011 58.1432 15.726C58.1679 15.8488 58.2007 15.97 58.2414 16.0887H60.4191C60.2988 15.8687 60.2266 15.6265 60.207 15.3777C60.1677 15.0474 60.1496 14.715 60.1528 14.3825ZM58.0089 13.1219C58.0065 13.2807 57.9941 13.4391 57.9717 13.5963C57.9434 13.8029 57.874 14.002 57.7674 14.1823C57.6424 14.3885 57.4652 14.5595 57.2529 14.6788C57.022 14.8174 56.6943 14.8867 56.2701 14.8867C56.1027 14.8869 55.9358 14.8717 55.7713 14.8414C55.6214 14.8163 55.4778 14.7634 55.3482 14.6855C55.2266 14.6113 55.1272 14.5067 55.0604 14.3825C54.9857 14.2354 54.9492 14.0724 54.9544 13.9081C54.9482 13.7388 54.9847 13.5706 55.0604 13.4183C55.1284 13.2931 55.224 13.1843 55.3403 13.0998C55.4643 13.0116 55.6023 12.944 55.7488 12.8997C55.9047 12.8503 56.0638 12.8108 56.2249 12.7814C56.3964 12.7526 56.5635 12.7261 56.7383 12.7073C56.9132 12.6885 57.0769 12.6619 57.2303 12.6332C57.3789 12.6055 57.5255 12.5686 57.6693 12.5226C57.794 12.4848 57.9093 12.4219 58.0078 12.338L58.0089 13.1219ZM64.1642 6.12585H62.0203V8.42471H60.7136V9.83343H62.0135V14.3548C61.9994 14.677 62.0669 14.9976 62.2099 15.2881C62.3322 15.5183 62.5184 15.7099 62.747 15.841C62.9913 15.9752 63.2593 16.063 63.5369 16.0997C63.8495 16.145 64.1652 16.1672 64.4813 16.1661C64.6946 16.1661 64.9101 16.1661 65.1324 16.1517C65.3351 16.1442 65.5371 16.1242 65.7372 16.092V14.4577C65.6322 14.4794 65.526 14.4946 65.419 14.503C65.3062 14.513 65.1933 14.5185 65.0715 14.5185C64.7093 14.5185 64.4666 14.4577 64.3448 14.3394C64.2229 14.221 64.1642 13.9844 64.1642 13.6284V9.83343H65.7372V8.42471H64.1609L64.1642 6.12585ZM73.0412 12.7294C72.9004 12.489 72.7079 12.2815 72.477 12.1212C72.2347 11.9531 71.9686 11.8205 71.6872 11.7276C71.3904 11.6303 71.0846 11.5462 70.7721 11.4766C70.4595 11.4069 70.1729 11.3428 69.8806 11.2842C69.617 11.2322 69.3567 11.1653 69.1009 11.084C68.8998 11.0236 68.7128 10.9252 68.5503 10.7943C68.4816 10.7387 68.4267 10.6685 68.39 10.589C68.3532 10.5094 68.3355 10.4227 68.3381 10.3354C68.3301 10.2004 68.3717 10.067 68.4555 9.95949C68.535 9.86413 68.6363 9.78838 68.7511 9.73834C68.8738 9.68781 69.0035 9.65539 69.1359 9.64214C69.2672 9.63067 69.399 9.62588 69.5308 9.62776C69.8769 9.61913 70.2199 9.69274 70.5306 9.84228C70.8116 9.98492 70.9684 10.2591 70.9977 10.665H73.0401C73.0181 10.2476 72.8905 9.84215 72.6689 9.48512C72.4705 9.18134 72.2043 8.92573 71.8903 8.73764C71.5618 8.54356 71.2007 8.40804 70.824 8.33735C70.4187 8.25746 70.0063 8.21782 69.5929 8.21904C69.1766 8.21856 68.7611 8.25557 68.3517 8.32961C67.9689 8.39644 67.6006 8.52696 67.2628 8.71552C66.9424 8.89543 66.6743 9.15277 66.4842 9.46301C66.2738 9.83422 66.1719 10.2551 66.1897 10.6793C66.1801 10.9771 66.2534 11.2718 66.4018 11.5319C66.5429 11.7639 66.7358 11.9617 66.966 12.1102C67.2105 12.269 67.4763 12.3936 67.7559 12.4806C68.0527 12.5746 68.3584 12.6564 68.6699 12.725C69.2785 12.8405 69.8778 12.9994 70.4629 13.2004C70.8917 13.3575 71.1061 13.5945 71.1061 13.9114C71.1128 14.0773 71.0649 14.2409 70.9695 14.3781C70.8804 14.5001 70.7648 14.6013 70.631 14.6744C70.4897 14.7505 70.3376 14.8053 70.1797 14.837C70.0233 14.8713 69.8637 14.8891 69.7035 14.89C69.4973 14.8904 69.2918 14.8655 69.0919 14.8159C68.9051 14.7705 68.7282 14.6926 68.5695 14.5859C68.4172 14.4809 68.2904 14.3442 68.1982 14.1857C68.0989 14.006 68.0495 13.8039 68.0549 13.5996H66.0058C66.0079 14.0503 66.1304 14.4925 66.3612 14.8823C66.5702 15.2155 66.8548 15.4971 67.1928 15.705C67.5488 15.9187 67.9409 16.0684 68.3505 16.1473C68.7877 16.2371 69.2332 16.2819 69.6798 16.2811C70.1193 16.2815 70.5577 16.2393 70.9887 16.155C71.3942 16.0787 71.7815 15.9286 72.1306 15.7127C72.4906 15.4941 72.7842 15.1849 72.9808 14.8173C73.1775 14.4498 73.2701 14.0373 73.2489 13.6228C73.2589 13.3128 73.1862 13.0056 73.0379 12.7316L73.0412 12.7294ZM77.3054 5.50221L73.2229 16.0864H75.6117L76.4591 13.7301H80.4965L81.3123 16.0864H83.7789L79.7382 5.50442L77.3054 5.50221ZM77.0797 11.9952L78.4868 8.11178H78.5162L79.8781 11.9952H77.0797ZM91.1958 9.46301C90.901 9.08458 90.5236 8.77554 90.0911 8.5585C89.5984 8.32016 89.0539 8.20326 88.5046 8.21793C88.0449 8.2122 87.5897 8.3082 87.1731 8.49879C86.7585 8.6995 86.4132 9.01519 86.1801 9.40661H86.1497V8.42471H84.1073V18.7723H86.2512V15.141H86.2806C86.5324 15.5079 86.88 15.8019 87.2871 15.9925C87.7049 16.1874 88.1626 16.2865 88.6253 16.2822C89.1467 16.2919 89.6627 16.1781 90.1295 15.9504C90.5492 15.7399 90.9161 15.4408 91.2037 15.0747C91.4968 14.6981 91.715 14.2709 91.8469 13.8152C91.9883 13.3336 92.0593 12.8347 92.0579 12.3335C92.0596 11.8051 91.9886 11.2788 91.8469 10.7689C91.7168 10.2969 91.4958 9.85367 91.1958 9.46301ZM89.8203 13.1839C89.7669 13.4585 89.6617 13.7211 89.51 13.9579C89.2538 14.3106 88.8755 14.56 88.4456 14.6597C88.0157 14.7594 87.5634 14.7025 87.1731 14.4997C86.9377 14.3673 86.738 14.1815 86.5909 13.9579C86.4384 13.7207 86.331 13.4585 86.2738 13.1839C86.2078 12.8871 86.1749 12.5842 86.1756 12.2805C86.1746 11.9717 86.2045 11.6635 86.2648 11.3605C86.3191 11.0821 86.4246 10.8157 86.5762 10.5743C86.721 10.3486 86.9177 10.1593 87.1506 10.0214C87.4184 9.86766 87.725 9.79102 88.0352 9.80026C88.3403 9.7922 88.6415 9.86887 88.9041 10.0214C89.1398 10.1625 89.3391 10.3552 89.4863 10.5842C89.642 10.8274 89.7521 11.0959 89.8113 11.3771C89.8774 11.6746 89.9103 11.9782 89.9095 12.2827C89.9112 12.585 89.8829 12.8869 89.8248 13.1839H89.8203ZM100.406 10.7744C100.277 10.3003 100.056 9.85506 99.7546 9.46301C99.4602 9.08463 99.0831 8.77558 98.651 8.5585C98.1579 8.32033 97.613 8.20343 97.0634 8.21793C96.6041 8.21255 96.1494 8.30855 95.733 8.49879C95.3183 8.69981 94.9728 9.01539 94.7389 9.40661H94.7096V8.42471H92.6627V18.7723H94.8066V15.141H94.8371C95.0888 15.5076 95.4359 15.8016 95.8425 15.9925C96.2603 16.1874 96.718 16.2865 97.1808 16.2822C97.7024 16.2919 98.2188 16.1781 98.686 15.9504C99.1054 15.7398 99.4719 15.4407 99.7591 15.0747C100.052 14.6981 100.27 14.2709 100.402 13.8152C100.545 13.3337 100.616 12.8348 100.614 12.3335C100.618 11.8072 100.55 11.2827 100.41 10.7744H100.406ZM98.3746 13.1839C98.3217 13.4587 98.2165 13.7213 98.0643 13.9579C97.9058 14.1956 97.6894 14.3909 97.4345 14.5261C97.1797 14.6612 96.8945 14.732 96.6047 14.732C96.3149 14.732 96.0297 14.6612 95.7749 14.5261C95.5201 14.3909 95.3036 14.1956 95.1452 13.9579C94.9931 13.7205 94.8857 13.4584 94.8281 13.1839C94.7626 12.887 94.7297 12.5842 94.7299 12.2805C94.7293 11.9716 94.7595 11.6635 94.8202 11.3605C94.8787 11.0812 94.9888 10.8147 95.1452 10.5743C95.2906 10.3491 95.4872 10.1599 95.7195 10.0214C95.9873 9.86766 96.2939 9.79102 96.6042 9.80026C96.9093 9.79208 97.2105 9.86876 97.473 10.0214C97.7091 10.1625 97.9088 10.3551 98.0564 10.5842C98.2121 10.8274 98.3222 11.0959 98.3814 11.3771C98.4475 11.6746 98.4804 11.9782 98.4795 12.2827C98.4776 12.5854 98.4454 12.8872 98.3836 13.1839H98.3746Z" fill="#25D366"></path>
        <path d="M25.9306 10.5046C25.8259 7.69499 24.6176 5.0336 22.5581 3.07618C20.4986 1.11877 17.7471 0.0166645 14.8781 3.00753e-06H14.8239C12.8918 -0.00140293 10.9927 0.490142 9.31337 1.42627C7.63402 2.3624 6.23232 3.71085 5.24619 5.33895C4.26006 6.96705 3.72348 8.8187 3.68925 10.7117C3.65501 12.6047 4.12431 14.4738 5.05095 16.1351L4.067 21.9049C4.0654 21.9167 4.06639 21.9288 4.0699 21.9402C4.07342 21.9516 4.07937 21.9622 4.08738 21.9712C4.09539 21.9802 4.10526 21.9874 4.11634 21.9924C4.12742 21.9974 4.13945 22 4.15163 22H4.16856L9.99215 20.7306C11.4968 21.4385 13.1446 21.8059 14.8137 21.8054C14.9198 21.8054 15.0259 21.8054 15.1319 21.8054C16.6002 21.7643 18.0456 21.4387 19.3847 20.8474C20.7238 20.256 21.9302 19.4106 22.9342 18.36C23.9381 17.3093 24.7198 16.0742 25.2341 14.726C25.7484 13.3777 25.9851 11.943 25.9306 10.5046ZM15.0766 19.909C14.9886 19.909 14.9006 19.909 14.8137 19.909C13.3386 19.9108 11.8846 19.5649 10.5744 18.9006L10.2765 18.748L6.32716 19.6624L7.05609 15.747L6.88683 15.4661C6.07843 14.1155 5.64301 12.5818 5.62344 11.0161C5.60386 9.4504 6.00083 7.90671 6.77522 6.53707C7.54962 5.16743 8.67474 4.0191 10.0398 3.20516C11.4048 2.39123 12.9626 1.93977 14.5598 1.89526C14.6486 1.89526 14.7378 1.89526 14.8273 1.89526C17.2388 1.90226 19.551 2.83733 21.2657 4.49898C22.9803 6.16064 23.9603 8.41588 23.9943 10.7788C24.0283 13.1417 23.1138 15.4232 21.4476 17.1316C19.7815 18.84 17.4972 19.8386 15.0868 19.9123L15.0766 19.909Z" fill="#25D366"></path>
        <path d="M10.946 5.6393C10.8086 5.64193 10.673 5.67157 10.5474 5.72646C10.4218 5.78135 10.3087 5.86038 10.2149 5.95887C9.94968 6.22535 9.20833 6.86669 9.16546 8.21349C9.12258 9.56029 10.0828 10.8927 10.2171 11.0796C10.3514 11.2665 12.053 14.1757 14.8559 15.3555C16.5033 16.051 17.2255 16.1705 17.6938 16.1705C17.8867 16.1705 18.0323 16.1506 18.1846 16.1417C18.698 16.1108 19.8569 15.5291 20.1097 14.8966C20.3624 14.2642 20.3793 13.7113 20.3128 13.6007C20.2462 13.4901 20.0634 13.4105 19.7881 13.269C19.5127 13.1274 18.1621 12.4198 17.9082 12.3202C17.814 12.2773 17.7127 12.2514 17.6092 12.2439C17.5417 12.2474 17.4761 12.2669 17.4181 12.3009C17.3601 12.3348 17.3114 12.382 17.2763 12.4386C17.0506 12.7139 16.5327 13.3121 16.3589 13.4846C16.3209 13.5275 16.2742 13.562 16.2217 13.586C16.1692 13.61 16.1122 13.6229 16.0542 13.6239C15.9475 13.6193 15.8431 13.5918 15.7484 13.5432C14.9303 13.2027 14.1844 12.7152 13.5492 12.1057C12.9558 11.5326 12.4523 10.8764 12.0552 10.1585C11.9018 9.87985 12.0552 9.73611 12.1952 9.60563C12.3351 9.47515 12.4852 9.29491 12.6296 9.139C12.7481 9.00582 12.8469 8.85692 12.923 8.6967C12.9624 8.62234 12.9823 8.53955 12.9809 8.45578C12.9795 8.37201 12.9569 8.28989 12.9151 8.21681C12.8485 8.07748 12.3509 6.70746 12.1173 6.1579C11.9277 5.68796 11.7021 5.67248 11.5046 5.6581C11.3421 5.64704 11.1559 5.64152 10.9697 5.63599H10.946" fill="#25D366"></path>
    </g>
    <defs>
        <clipPath id="clip0_4057_1490">
            <rect width="100" height="22" fill="white" transform="translate(0.5)"></rect>
        </clipPath>
    </defs>
</svg>